<?xml version="1.0" encoding="UTF-8"?>
<svg id="Layer_2" data-name="Layer 2" xmlns="http://www.w3.org/2000/svg" viewBox="0 0 304.98 25.2">
  <defs>
    
  </defs>
  <g id="Layer_1-2" data-name="Layer 1">
    <g>
      <path class="cls-1" d="M37.25,25.2h-7.12l-2.29-6.57H9.41l-2.29,6.57H0L8.76,0h19.72l8.76,25.2ZM25.55,12.05l-1.91-5.48h-10.05l-1.9,5.48h13.86Z"/>
      <path class="cls-1" d="M72.68,9.31c0,5.13-4.18,9.31-9.31,9.31h-19.17v6.57h-6.57V0h25.74c5.13,0,9.31,4.18,9.31,9.31ZM66.1,9.31c0-1.51-1.23-2.74-2.74-2.74h-19.17v5.48h19.17c1.51,0,2.74-1.23,2.74-2.74Z"/>
      <path class="cls-1" d="M114.7,12.6c0,6.95-5.65,12.6-12.6,12.6h-18.62c-6.95,0-12.6-5.65-12.6-12.6S76.54,0,83.48,0h18.62c6.95,0,12.6,5.65,12.6,12.6ZM108.13,12.6c0-3.32-2.7-6.02-6.03-6.02h-18.62c-3.32,0-6.03,2.7-6.03,6.02s2.7,6.03,6.03,6.03h18.62c3.32,0,6.03-2.7,6.03-6.03Z"/>
      <path class="cls-1" d="M154.53,0v25.2h-6.57V7.91l-10.17,17.29h-5.95l-10.17-17.29v17.29h-6.57V0h9.55l10.17,17.29L144.98,0h9.55Z"/>
      <path class="cls-1" d="M192.15,25.2h-7.12l-2.29-6.57h-18.43l-2.29,6.57h-7.12L163.67,0h19.72l8.76,25.2ZM180.46,12.05l-1.91-5.48h-10.05l-1.9,5.48h13.86Z"/>
      <path class="cls-1" d="M231.97,0v25.2h-6.57V7.91l-10.17,17.29h-5.95l-10.17-17.29v17.29h-6.57V0h9.55l10.17,17.29L222.42,0h9.55Z"/>
      <path class="cls-1" d="M241.08,6.57v2.19h26.29v6.57h-26.29v3.29h26.29v6.57h-32.87V0h32.87v6.57h-26.29Z"/>
      <path class="cls-1" d="M304.98,25.2h-37.25l8.76-25.2h19.72l8.76,25.2ZM295.57,18.62l-4.19-12.05h-10.05l-4.19,12.05h18.43Z"/>
    </g>
  </g>
</svg>