<!--?xml version="1.0" standalone="no"?-->              
<svg id="sw-js-blob-svg" viewBox="0 0 100 100" xmlns="http://www.w3.org/2000/svg">                    
    <defs>                         
                          
    </defs>                
    <path fill="" d="M19,-30.7C24.2,-29.8,27.9,-24,29.2,-18.1C30.4,-12.1,29.3,-6.1,29.5,0.1C29.7,6.3,31.1,12.5,29.6,18C28,23.4,23.4,28,18,28.5C12.6,29,6.3,25.3,1.3,23.2C-3.8,21,-7.5,20.3,-14.1,20.4C-20.6,20.6,-29.8,21.6,-35.7,18.3C-41.5,15,-44,7.5,-41,1.8C-37.9,-4,-29.4,-8,-24.3,-12.7C-19.3,-17.4,-17.8,-22.8,-14.3,-24.7C-10.8,-26.6,-5.4,-25.1,0.7,-26.4C6.9,-27.6,13.7,-31.6,19,-30.7Z" width="100%" height="100%" transform="translate(50 50)" stroke-width="0" style="transition: 0.3s;">
    </path>              
</svg>